# xmcd
#
# Track frame offsets: 
#        183
#        22318
#        48248
#        70760
#        92425
#        122140
#        148055
#        180013
#        224413
#        269890
#
# Disc length: 4047 seconds
#
# Revision: 1
# Processed by: cddbd v1.5.2PL0 Copyright (c) Steve Scherf et al.
# Submitted via: ExactAudioCopy v0.99pb3
#
DISCID=940fcd0a
DTITLE=Various Artist - Chicago Blues At The Burnley Blues Festival
DYEAR=1991
DGENRE=Blues
TTITLE0=Johnny 'Big Moose' Walker - Swear To Tell The Truth
TTITLE1=Johnny 'Big Moose' Walker - Drifting
TTITLE2=Johnny 'Big Moose' Walker - Please Lay It On Me
TTITLE3=Johnny Robinson - Stand By The Blues
TTITLE4=Harmonica Hinds - Make Some Music
TTITLE5=Harmonica Hinds - Train
TTITLE6=Lefty Dizz - You Don't Love Poor Me No More
TTITLE7=Lefty Dizz - Too Late
TTITLE8=Lefty Dizz - Teardrops On My Pillow
TTITLE9=Lefty Dizz - Sadie
EXTD=YEAR: 1991
EXTT0=
EXTT1=
EXTT2=
EXTT3=
EXTT4=
EXTT5=
EXTT6=
EXTT7=
EXTT8=
EXTT9=
PLAYORDER=
